PathFileType	4	(X/Y/Z)	RUN4																																																													
DataRate	CameraRate	NumFrames	NumMarkers	Units	OrigDataRate	OrigDataStartFrame	OrigNumFrames																																																									
15	15	13	21	mm	15	217	577																																																									
Frame#	Time	SpineBase			SpineMid			Neck			Head			ShoulderLeft			ElbowLeft			WristLeft			HandLeft			ShoulderRight			ElbowRight			WristRight			HandRight			HipLeft			KneeLeft			AnkleLeft			FootLeft			HipRight			KneeRight			AnkleRight			FootRight			SpineShoulder		
		X1	Y1	Z1	X2	Y2	Z2	X3	Y3	Z3	X4	Y4	Z4	X5	Y5	Z5	X6	Y6	Z6	X7	Y7	Z7	X8	Y8	Z8	X9	Y9	Z9	X10	Y10	Z10	X11	Y11	Z11	X12	Y12	Z12	X13	Y13	Z13	X14	Y14	Z14	X15	Y15	Z15	X16	Y16	Z16	X17	Y17	Z17	X18	Y18	Z18	X19	Y19	Z19	X20	Y20	Z20	X21	Y21	Z21
																																																																
217	14.4	1014.161	696.6895	1020.68865	1030.638	1020.061558	1021.90895	1061.95	1333.1412	1018.11155	1094.242	1471.0075	980.59385	978.119	1244.1345	839.14575	865.482	1008.833331	752.16795	862.349	805.6897	657.10145	884.974	722.3342	620.52815	1134.056	1222.0096	1178.85195	1123.73	984.71293	1297.42365	1231.475	771.376	1293.50325	1275.996	695.977	1266.43635	1018.509	700.9753	933.39635	1031.741	327.7699	942.32085	916.538	-60.565	990.47365	1000.005	-152.903	959.28975	1085.229	703.4307	1081.91905	1088.963	361.4206	1114.63105	1054.148	-155.269	1143.35855	1184.993	-200.551	1086.15065	1051.652	1256.3119	1019.89055
218	14.46666667	1018.434	698.0165	1018.45525	1036.169	1022.040592	1021.84015	1069.309	1335.9917	1020.66635	1099.425	1473.5191	976.58075	978.025	1244.4796	842.14395	863.756	1008.764123	775.43555	863.764	811.6323	667.45655	893.891	723.0499	642.19125	1149.272	1224.9157	1173.02555	1145.621	989.69316	1294.26135	1256.174	772.2264	1281.97825	1298.879	699.6832	1252.86945	1020.959	702.5119	932.72695	1041.585	335.5812	928.89915	929.087	-53.838	976.16165	1008.227	-150.278	953.04945	1091.192	704.3263	1077.98775	1093.971	365.2536	1113.87175	1064.125	-45.042	1137.11595	1087.155	-124.882	1079.00205	1058.512	1258.9309	1021.72715
219	14.53333333	1022.918	699.8086	1014.19285	1042.517	1025.19973	1020.47725	1078.213	1340.9615	1022.39075	1102.856	1476.2408	971.01295	977.513	1244.821	844.95285	864.576	1006.306499	797.85915	871.79	808.3957	690.53015	905.166	721.7172	665.36065	1157.592	1226.2181	1168.55965	1169.787	992.93428	1288.38005	1277.138	773.9532	1270.33285	1319.131	701.2649	1238.12065	1022.685	704.2998	930.80305	1045.923	340.9566	912.46335	936.36	-49.146	962.09585	1011.788	-156.311	934.72585	1098.991	705.8292	1071.25065	1100.991	371.8242	1111.96955	1066.582	-37.876	1136.62485	1087.376	-119.063	1081.85975	1066.739	1263.4198	1022.63525
220	14.6	1027.389	700.4457	1009.92235	1048.319	1027.96377	1017.99475	1085.009	1345.7825	1021.42695	1105.887	1479.4068	962.91875	977.999	1245.162	847.19175	864.821	1002.56233	810.78565	877.7	798.8724	714.90055	916.975	717.4978	687.76885	1181.481	1228.7644	1151.67115	1190.686	999.32219	1279.68825	1299.469	779.3284	1257.36225	1338.856	704.3484	1223.15245	1024.623	705.1274	929.11625	1044.28	339.124	896.58835	950.161	-59.351	898.28425	1013.625	-156.89	897.42705	1105.74	706.2094	1064.52325	1108.063	378.9199	1110.01735	1068.948	-30.183	1135.19965	1084.935	-112.391	1080.59375	1073.331	1267.7425	1021.33805
221	14.66666667	1031.657	701.2369	1005.18895	1053.229	1030.76713	1014.79985	1090.224	1350.3383	1019.39475	1108.203	1482.6302	952.56645	979.104	1244.7542	848.70485	867.511	988.68622	826.26735	883.125	786.064	728.03395	932.401	710.4299	712.68485	1191.164	1231.0381	1143.23115	1211.939	1007.266387	1269.28275	1315.356	785.1498	1243.40735	1355.534	706.1191	1207.98815	1026.671	705.9238	926.92575	1039.48	338.5075	874.85565	950.664	-61.171	884.81855	1018.804	-153.675	862.45915	1111.934	707.1164	1057.57755	1117.028	385.5447	1105.73385	1070.499	-22.352	1133.14605	1090.478	-109.765	1069.50045	1078.494	1271.8812	1019.06275
222	14.73333333	1034.103	701.4708	1000.61855	1056.725	1033.25143	1010.64065	1094.745	1355.2748	1015.33135	1108.052	1485.546	942.76605	980.291	1244.22	849.76045	866.34	978.29172	832.69755	892.3	770.9752	746.01765	933.786	722.1483	743.20975	1196.063	1232.2513	1137.69955	1228.164	1009.795329	1260.00635	1333.141	785.7308	1227.24995	1368.816	707.9399	1193.39245	1027.858	706.4204	923.86965	1030.881	336.5727	851.75035	963.295	-67.999	829.01655	1076.079	-115.208	746.89565	1115.408	707.2251	1052.13735	1120.928	387.4194	1103.21555	1072.619	-20.105	1131.88345	1131.111	-104.296	1093.40065	1082.761	1276.1869	1015.00815
223	14.8	1037.463	701.1277	993.30095	1060.335	1035.31171	1004.06055	1098.29	1359.2361	1009.22975	1107.197	1487.8311	931.52575	981.09	1243.4262	849.95075	869.365	966.43166	835.68875	931.283	753.4792	784.43475	961.68	699.8324	772.16825	1210.681	1233.8698	1117.76195	1244.719	1015.795238	1246.25905	1348.097	787.6086	1213.62505	1383.151	710.3026	1176.93275	1029.09	706.4148	919.46235	1024.428	335.2921	837.57255	963.15	-68.642	789.62415	1028.594	-155.585	788.37055	1121.257	706.749	1041.99045	1128.811	393.8027	1097.83845	1074.876	-12.382	1131.39995	1103.757	-110.106	1047.81965	1086.344	1279.7192	1008.82045
224	14.86666667	1040.742	700.1678	987.62145	1063.187	1036.35674	998.45065	1100.569	1361.96	1003.52245	1105.322	1488.0246	920.73035	982.5	1241.7531	848.87295	869.65	965.27191	836.52275	928.67	749.1465	798.15815	962.4	698.8227	780.51405	1216.229	1234.9937	1106.17845	1257.921	1021.563687	1232.26925	1358.179	791.0195	1197.51375	1393.463	713.3711	1160.13485	1030.681	705.5285	915.56435	1016.357	331.5987	820.33835	972.852	-69.193	732.77965	1030.192	-152.107	755.72455	1126.058	706.0702	1035.03345	1132.526	394.0997	1094.49135	1076.563	-11.386	1131.37235	1104.457	-99.6	1071.28135	1088.778	1282.0508	1003.16205
225	14.93333333	1045.187	699.7649	979.16495	1066.425	1037.8919	989.18395	1102.359	1365.2016	993.40145	1103.161	1488.4023	908.17155	987.339	1238.2763	844.78775	872.181	962.74126	836.86655	926.146	745.848	796.32545	959.855	693.5779	776.77315	1216.064	1234.942	1106.21115	1270.183	1024.715836	1216.45565	1369.868	791.1608	1176.31575	1404.899	714.5261	1142.06435	1033.429	704.6559	905.47525	1010.54	328.7967	807.45995	974.614	-68.375	699.79725	1025.695	-150.793	728.51995	1131.811	706.2163	1028.37265	1137.978	394.3545	1088.20635	1077.887	-9.612	1131.64685	1184.997	-66.305	1048.47715	1090.952	1284.8955	993.26495
226	15	1049.762	698.079	971.28855	1070.027	1038.37597	979.28965	1104.824	1367.8817	981.19245	1100.986	1488.2251	895.51905	990.822	1233.6901	836.59315	877.199	957.42824	833.27285	923.455	739.1857	792.90235	952.428	691.1923	769.95365	1229.434	1234.9115	1068.73445	1279.68	1025.98809	1200.83485	1379.88	791.8088	1158.88795	1414.363	715.2144	1122.44905	1035.965	702.6028	900.60775	1007.331	327.4598	797.75555	988.305	-57.089	644.65415	1025.57	-133.606	691.86225	1138.777	705.4522	1017.33315	1141.221	395.7064	1083.65375	1079.865	-7.655	1130.02995	1179.862	-64.726	1040.31485	1093.723	1287.0316	981.64935
227	15.06666667	1054.367	696.5633	962.25075	1071.896	1038.72385	967.18465	1103.391	1370.0912	965.33445	1095.783	1488.6353	878.06495	991.856	1230.6944	827.02875	875.95	955.67797	827.73565	916.138	736.5624	787.53745	939.01	687.3211	762.02335	1230.846	1235.9715	1060.81545	1285.134	1027.26423	1183.26555	1385.21	791.4191	1140.48135	1419.73	715.7746	1103.34035	1039.728	700.242	893.13465	1005.872	328.1299	791.13385	993.447	-41.366	595.59045	1027.7	-137.766	678.23195	1143.851	704.9057	1007.57435	1142.873	397.0387	1079.04225	1080.356	-5.556	1129.47435	1180.318	-63.653	1040.66955	1093.19	1288.7804	966.76425
228	15.13333333	1058.577	693.7131	950.74785	1073.86	1037.52451	953.23365	1103.226	1370.2364	950.00205	1092.087	1486.3116	863.51785	993.39	1226.8149	815.76445	871.727	954.84956	816.44235	920.822	696.313	760.65515	943.456	657.3892	744.11805	1232.568	1235.1514	1043.16065	1291.149	1028.06267	1163.01545	1390.695	793.0017	1118.01285	1424.186	713.7886	1082.48565	1043.017	696.4812	882.37545	1005.607	325.4997	781.11845	992.127	-70.927	592.71145	1030.674	-138.613	665.19165	1148.966	702.9875	995.77595	1144.932	397.3329	1073.19615	1080.85	-4.175	1128.89545	1179.154	-63.526	1039.84965	1093.516	1288.6346	951.65665
229	15.2	1065.016	690.4728	934.94205	1076.119	1035.44954	937.73505	1102.002	1368.8029	934.84845	1087.105	1484.7286	845.55815	990.76	1220.84	798.23245	863.865	951.84389	799.26465	880.264	731.1299	758.84345	940.634	669.6236	739.98655	1233.165	1235.0501	1025.77345	1292.52	1029.4206	1142.23875	1391.692	791.8511	1095.91205	1426.813	710.5998	1059.94615	1048.711	691.2961	867.63415	1007.235	322.643	770.96665	993.688	-74.347	594.36915	1032.905	-147.359	646.58735	1156.257	701.8011	979.27245	1147.496	399.7724	1065.69415	1082.242	-0.778	1126.02715	1132.251	-89.22	1100.03905	1093.112	1287.0832	936.43035
